<mxfile host="app.diagrams.net" modified="2023-10-17T14:07:57.896Z" agent="Mozilla/5.0 (Macintosh; Intel Mac OS X 10_15_7) AppleWebKit/537.36 (KHTML, like Gecko) Chrome/117.0.0.0 Safari/537.36 Edg/117.0.2045.55" etag="AmfU-33f7EZAEPoirXWQ" version="21.7.5" type="github">
  <diagram id="prtHgNgQTEPvFCAcTncT" name="Page-1">
    <mxGraphModel dx="908" dy="545" grid="1" gridSize="10" guides="1" tooltips="1" connect="1" arrows="1" fold="1" page="1" pageScale="1" pageWidth="827" pageHeight="1169" math="0" shadow="0">
      <root>
        <mxCell id="0" />
        <mxCell id="1" parent="0" />
        <mxCell id="u1YVipLCWvImAruFahIr-1" value="电销v1.5" style="swimlane;childLayout=stackLayout;resizeParent=1;resizeParentMax=0;startSize=20;html=1;labelBackgroundColor=none;fillColor=#B2C9AB;strokeColor=#788AA3;fontColor=#46495D;" vertex="1" parent="1">
          <mxGeometry x="150.00000000000045" y="220" width="690" height="1300" as="geometry" />
        </mxCell>
        <mxCell id="u1YVipLCWvImAruFahIr-2" value="电销系统" style="swimlane;startSize=20;html=1;labelBackgroundColor=none;fillColor=#B2C9AB;strokeColor=#788AA3;fontColor=#46495D;" vertex="1" parent="u1YVipLCWvImAruFahIr-1">
          <mxGeometry y="20" width="450" height="1280" as="geometry" />
        </mxCell>
        <mxCell id="u1YVipLCWvImAruFahIr-12" style="edgeStyle=orthogonalEdgeStyle;rounded=0;orthogonalLoop=1;jettySize=auto;html=1;labelBackgroundColor=none;strokeColor=#788AA3;fontColor=default;" edge="1" parent="u1YVipLCWvImAruFahIr-2" source="u1YVipLCWvImAruFahIr-5">
          <mxGeometry relative="1" as="geometry">
            <mxPoint x="227.5" y="160.0000000000001" as="targetPoint" />
          </mxGeometry>
        </mxCell>
        <mxCell id="u1YVipLCWvImAruFahIr-5" value="新名单入库" style="rounded=0;whiteSpace=wrap;html=1;labelBackgroundColor=none;fillColor=#B2C9AB;strokeColor=#788AA3;fontColor=#46495D;" vertex="1" parent="u1YVipLCWvImAruFahIr-2">
          <mxGeometry x="170" y="50" width="115" height="50" as="geometry" />
        </mxCell>
        <mxCell id="u1YVipLCWvImAruFahIr-8" style="edgeStyle=orthogonalEdgeStyle;rounded=0;orthogonalLoop=1;jettySize=auto;html=1;entryX=0;entryY=0.5;entryDx=0;entryDy=0;labelBackgroundColor=none;strokeColor=#788AA3;fontColor=default;" edge="1" parent="u1YVipLCWvImAruFahIr-2" source="u1YVipLCWvImAruFahIr-6" target="u1YVipLCWvImAruFahIr-5">
          <mxGeometry relative="1" as="geometry">
            <Array as="points">
              <mxPoint x="150" y="45" />
              <mxPoint x="150" y="75" />
            </Array>
          </mxGeometry>
        </mxCell>
        <mxCell id="u1YVipLCWvImAruFahIr-6" value="纯新名单" style="rounded=0;whiteSpace=wrap;html=1;labelBackgroundColor=none;fillColor=#B2C9AB;strokeColor=#788AA3;fontColor=#46495D;" vertex="1" parent="u1YVipLCWvImAruFahIr-2">
          <mxGeometry x="65" y="30" width="60" height="30" as="geometry" />
        </mxCell>
        <mxCell id="u1YVipLCWvImAruFahIr-10" style="edgeStyle=orthogonalEdgeStyle;rounded=0;orthogonalLoop=1;jettySize=auto;html=1;entryX=0;entryY=0.5;entryDx=0;entryDy=0;labelBackgroundColor=none;strokeColor=#788AA3;fontColor=default;" edge="1" parent="u1YVipLCWvImAruFahIr-2" source="u1YVipLCWvImAruFahIr-7" target="u1YVipLCWvImAruFahIr-5">
          <mxGeometry relative="1" as="geometry">
            <Array as="points">
              <mxPoint x="150" y="105" />
              <mxPoint x="150" y="75" />
            </Array>
          </mxGeometry>
        </mxCell>
        <mxCell id="u1YVipLCWvImAruFahIr-7" value="出库撞库方式再入名单" style="rounded=0;whiteSpace=wrap;html=1;labelBackgroundColor=none;fillColor=#B2C9AB;strokeColor=#788AA3;fontColor=#46495D;" vertex="1" parent="u1YVipLCWvImAruFahIr-2">
          <mxGeometry x="35" y="90" width="90" height="30" as="geometry" />
        </mxCell>
        <mxCell id="u1YVipLCWvImAruFahIr-13" value="分案方式" style="rhombus;whiteSpace=wrap;html=1;labelBackgroundColor=none;fillColor=#B2C9AB;strokeColor=#788AA3;fontColor=#46495D;" vertex="1" parent="u1YVipLCWvImAruFahIr-2">
          <mxGeometry x="168.5" y="160" width="118" height="80" as="geometry" />
        </mxCell>
        <mxCell id="u1YVipLCWvImAruFahIr-3" value="呼叫中心" style="swimlane;startSize=20;html=1;labelBackgroundColor=none;fillColor=#B2C9AB;strokeColor=#788AA3;fontColor=#46495D;" vertex="1" parent="u1YVipLCWvImAruFahIr-1">
          <mxGeometry x="450" y="20" width="120" height="1280" as="geometry" />
        </mxCell>
        <mxCell id="u1YVipLCWvImAruFahIr-4" value="Lane 3" style="swimlane;startSize=20;html=1;labelBackgroundColor=none;fillColor=#B2C9AB;strokeColor=#788AA3;fontColor=#46495D;" vertex="1" parent="u1YVipLCWvImAruFahIr-1">
          <mxGeometry x="570" y="20" width="120" height="1280" as="geometry" />
        </mxCell>
        <mxCell id="u1YVipLCWvImAruFahIr-18" value="预测外呼池" style="whiteSpace=wrap;html=1;fillColor=#d80073;strokeColor=#A50040;labelBackgroundColor=none;fontColor=#ffffff;" vertex="1" parent="1">
          <mxGeometry x="60.000000000000455" y="420" width="70" height="40" as="geometry" />
        </mxCell>
        <mxCell id="u1YVipLCWvImAruFahIr-19" value="" style="edgeStyle=orthogonalEdgeStyle;rounded=0;orthogonalLoop=1;jettySize=auto;html=1;labelBackgroundColor=none;strokeColor=#788AA3;fontColor=default;" edge="1" parent="1" source="u1YVipLCWvImAruFahIr-13" target="u1YVipLCWvImAruFahIr-18">
          <mxGeometry relative="1" as="geometry" />
        </mxCell>
        <mxCell id="u1YVipLCWvImAruFahIr-20" value="预测外呼" style="edgeLabel;html=1;align=center;verticalAlign=middle;resizable=0;points=[];labelBackgroundColor=none;fontColor=#46495D;" vertex="1" connectable="0" parent="u1YVipLCWvImAruFahIr-19">
          <mxGeometry x="-0.2248" relative="1" as="geometry">
            <mxPoint as="offset" />
          </mxGeometry>
        </mxCell>
      </root>
    </mxGraphModel>
  </diagram>
</mxfile>
